<?xml version="1.0" encoding="UTF-8"?><svg id="Layer_1" xmlns="http://www.w3.org/2000/svg" viewBox="0 0 100 100"><defs><style>.cls-1{fill:#fff;}.cls-2{fill:#635bff;}</style></defs><path class="cls-2" d="m54.53,57.01l-4.19-11.55c-.29-.79-.92-1.72-2.26-1.72s-1.97.94-2.26,1.73l-4.18,11.54c-.28.73-.28.79-.28,1.11,0,.69.65,1.3,1.39,1.3.51,0,1-.12,1.41-1.59l.48-1.75h6.9l.48,1.75c.42,1.47.87,1.59,1.41,1.59.75,0,1.39-.59,1.39-1.3,0-.3,0-.38-.28-1.1Zm-8.37-3.76l1.95-6.11,1.95,6.11h-3.9Z"/><polygon class="cls-1" points="46.16 53.25 50.05 53.25 48.1 47.14 46.16 53.25"/><path class="cls-2" d="m60.27,43.8c-.48,0-.98.28-1.19.66-.14.31-.18.45-.18,1.31v11.62c0,.89.02.99.19,1.32.2.37.7.65,1.18.65s.95-.28,1.16-.66c.14-.31.18-.45.18-1.31v-11.62c0-.89-.02-.99-.19-1.32-.18-.36-.69-.65-1.15-.65Z"/><path class="cls-2" d="m48.14,69.81h8.06v12.15l-.34.11c-.58.19-1.11.51-1.54.94-.72.72-1.12,1.68-1.12,2.71s.4,1.98,1.13,2.71c1.45,1.45,3.95,1.45,5.41,0,.72-.72,1.12-1.68,1.12-2.7s-.4-1.98-1.12-2.7c-.42-.42-.94-.74-1.5-.93l-.33-.11v-12.15h8.15v9.77c0,1.04.41,2.01,1.14,2.75.74.74,1.71,1.14,2.75,1.14h3.89l.11.34c.18.57.51,1.1.93,1.52,1.44,1.44,3.95,1.45,5.41,0,.72-.72,1.12-1.68,1.12-2.7s-.4-1.98-1.12-2.7c-1.44-1.44-3.95-1.45-5.41,0-.42.42-.74.95-.93,1.51l-.11.33h-3.89c-.58,0-1.14-.23-1.55-.65-.41-.41-.64-.96-.64-1.55v-9.82l.35-.1c.63-.18,1.21-.52,1.67-.99.74-.73,1.14-1.71,1.14-2.74v-4.14h13.31l.11.33c.19.56.51,1.08.93,1.5,1.45,1.44,3.95,1.45,5.41,0,.72-.72,1.12-1.68,1.12-2.7s-.4-1.98-1.12-2.7c-1.44-1.44-3.95-1.45-5.41,0-.43.43-.75.96-.94,1.54l-.11.34h-13.3v-8.06h7.24l.11.33c.19.56.51,1.08.93,1.5,1.44,1.44,3.95,1.45,5.41,0,.72-.72,1.12-1.68,1.12-2.7s-.4-1.98-1.12-2.7c-1.45-1.45-3.97-1.45-5.41,0-.43.43-.76.96-.94,1.54l-.11.34h-7.23v-8.06h13.35l.11.34c.19.58.51,1.11.94,1.54,1.45,1.45,3.96,1.44,5.41,0,.72-.72,1.12-1.68,1.12-2.7s-.4-1.98-1.13-2.71c-1.45-1.45-3.96-1.44-5.41,0-.42.42-.74.94-.93,1.5l-.11.33h-13.36v-4.14c0-1.03-.4-2.01-1.14-2.74-.47-.47-1.04-.81-1.67-.99l-.35-.1v-9.81c0-.58.23-1.13.64-1.55.41-.41.97-.64,1.55-.64h3.89l.11.33c.19.57.51,1.09.94,1.52,1.45,1.45,3.96,1.44,5.41,0,.72-.72,1.12-1.68,1.12-2.7s-.4-1.98-1.13-2.71c-1.45-1.45-3.96-1.44-5.41,0-.43.43-.75.95-.93,1.52l-.11.34h-3.89c-1.04,0-2.01.41-2.75,1.14-.74.74-1.14,1.71-1.14,2.75v9.77h-8.06v-6.07l.34-.11c.58-.18,1.11-.51,1.54-.94.72-.72,1.12-1.68,1.12-2.7s-.4-1.98-1.13-2.71c-1.45-1.45-3.97-1.44-5.41,0-.72.72-1.12,1.68-1.12,2.71s.4,1.98,1.12,2.71c.42.42.94.74,1.5.93l.33.11v6.09h-8.06v-12.14l.34-.11c.57-.18,1.11-.51,1.54-.94.72-.72,1.12-1.68,1.12-2.7s-.4-1.98-1.12-2.71c-1.45-1.45-3.95-1.45-5.41,0-.72.72-1.12,1.68-1.12,2.7s.4,1.98,1.12,2.7c.42.42.94.74,1.5.93l.33.11v12.16h-8.15v-9.77c0-1.04-.41-2.01-1.14-2.75s-1.71-1.14-2.75-1.14h-3.89l-.11-.34c-.18-.57-.51-1.1-.93-1.52-1.44-1.44-3.96-1.45-5.41,0-.72.72-1.12,1.68-1.12,2.7s.4,1.98,1.13,2.71c1.45,1.44,3.95,1.45,5.41,0,.42-.42.74-.95.93-1.51l.11-.33h3.89c.58,0,1.13.23,1.55.64.42.41.64.97.64,1.55v9.84l-.34.11c-.58.19-1.12.52-1.56.95-.74.74-1.14,1.71-1.14,2.74v4.14h-13.36l-.11-.33c-.19-.56-.51-1.08-.93-1.5-1.44-1.44-3.95-1.45-5.41,0-.72.72-1.12,1.68-1.12,2.7s.4,1.98,1.12,2.7c1.44,1.44,3.95,1.45,5.41,0,.43-.43.75-.96.94-1.53l.11-.34h13.35v8.06h-7.23l-.11-.34c-.18-.58-.51-1.11-.94-1.54-.72-.72-1.68-1.12-2.7-1.12s-1.98.4-2.71,1.13c-.72.72-1.12,1.68-1.12,2.7s.4,1.98,1.13,2.71c1.45,1.45,3.96,1.44,5.41,0,.42-.42.74-.94.93-1.5l.11-.33h7.24v8.06h-13.3l-.11-.34c-.19-.57-.51-1.11-.95-1.54-1.45-1.44-3.96-1.44-5.41,0-.72.72-1.12,1.68-1.12,2.7s.4,1.98,1.13,2.71c1.45,1.44,3.95,1.45,5.41,0,.42-.42.74-.94.92-1.5l.11-.33h13.31v4.14c0,1.03.4,2.01,1.14,2.74.44.43.97.76,1.56.95l.34.11v9.84c0,.58-.23,1.13-.64,1.55-.41.41-.97.64-1.55.64h-3.89l-.11-.33c-.19-.57-.51-1.09-.94-1.52-1.45-1.44-3.95-1.45-5.41,0-.72.72-1.12,1.68-1.12,2.7s.4,1.98,1.13,2.71c1.45,1.45,3.97,1.44,5.41,0,.43-.43.75-.95.93-1.52l.11-.34h3.89c1.04,0,2.01-.41,2.75-1.14.74-.74,1.14-1.71,1.14-2.75v-9.77h8.06v6.08l-.34.11c-.58.18-1.11.51-1.54.94-.72.72-1.12,1.68-1.12,2.7s.4,1.98,1.13,2.71c1.45,1.44,3.95,1.45,5.41,0,.72-.72,1.12-1.68,1.12-2.7s-.4-1.98-1.13-2.71c-.42-.42-.94-.74-1.5-.92l-.33-.11v-6.09Zm8.89,18.03c-.57,0-1.1-.22-1.51-.62-.4-.4-.62-.94-.62-1.51s.22-1.1.62-1.5c.81-.81,2.22-.79,3.01,0,.4.4.62.94.62,1.5s-.22,1.1-.62,1.51c-.4.4-.94.62-1.51.62Zm20.55-3.09c-.57,0-1.1-.22-1.5-.62s-.62-.94-.62-1.5.22-1.11.62-1.51c.79-.8,2.2-.8,3.01,0,.4.4.62.93.62,1.5s-.22,1.1-.62,1.51c-.4.4-.94.62-1.51.62Zm-50.73,0c-.57,0-1.1-.22-1.51-.62-.4-.4-.62-.94-.62-1.51s.22-1.11.62-1.51c.81-.8,2.21-.8,3.02,0,.39.39.62.93.62,1.48,0,.58-.22,1.12-.62,1.53s-.94.62-1.5.62Zm20.42-2.98c-.57,0-1.1-.22-1.51-.62h0c-.4-.4-.62-.94-.62-1.51s.22-1.1.62-1.5c.81-.81,2.21-.8,3.01,0,.4.4.62.94.62,1.51s-.22,1.1-.62,1.51c-.4.4-.94.62-1.51.62Zm19.76-13.66h-29.5c-.58,0-1.13-.23-1.54-.64-.41-.41-.64-.96-.64-1.54v-29.5c0-.58.23-1.13.64-1.54s.93-.63,1.5-.64h29.41c.48,0,1.11.07,1.67.64.41.41.64.96.64,1.54v29.5c0,.58-.23,1.13-.64,1.54-.41.41-.96.64-1.54.64Zm-50.44-5.07c-.57,0-1.1-.22-1.51-.62-.4-.4-.62-.94-.62-1.51s.22-1.1.62-1.5c.81-.81,2.21-.8,3.01,0,.39.4.61.92.62,1.48v.06c0,.56-.23,1.08-.62,1.47-.4.4-.94.62-1.51.62Zm71.37,0c-.57,0-1.1-.22-1.51-.62-.39-.39-.61-.92-.62-1.48h0c0-.6.21-1.13.62-1.54.81-.8,2.21-.8,3.01,0,.4.4.62.93.62,1.5s-.22,1.11-.62,1.51c-.4.4-.94.62-1.51.62Zm-65.3-9.76c-.57,0-1.1-.22-1.51-.62-.4-.4-.62-.94-.62-1.51s.22-1.1.62-1.51h0c.8-.8,2.2-.8,3.01,0,.4.4.62.94.62,1.51s-.22,1.1-.62,1.5-.94.62-1.5.62Zm59.23,0c-.57,0-1.1-.22-1.5-.62-.4-.4-.62-.94-.62-1.5s.22-1.1.62-1.5c.81-.8,2.21-.8,3.01,0,.4.4.62.94.62,1.51s-.22,1.1-.62,1.51c-.4.4-.94.62-1.51.62Zm-65.35-9.71c-.57,0-1.1-.22-1.5-.62-.4-.4-.62-.94-.62-1.5s.22-1.1.62-1.51c.8-.8,2.21-.8,3.01,0,.39.39.61.92.62,1.47v.06c0,.56-.23,1.09-.63,1.48-.4.4-.93.62-1.5.62Zm71.47,0c-.57,0-1.11-.22-1.51-.62s-.61-.92-.62-1.48c0-.59.22-1.13.62-1.53.81-.81,2.21-.8,3.01,0,.4.4.62.94.62,1.51s-.22,1.1-.62,1.5c-.4.4-.94.62-1.5.62Zm-30.85-18.72c-.57,0-1.1-.22-1.5-.62-.4-.4-.62-.94-.62-1.5s.23-1.11.63-1.5c.8-.8,2.21-.8,3.01,0h0c.4.4.62.94.62,1.51s-.22,1.1-.62,1.5-.94.62-1.5.62Zm20.42-2.98c-.57,0-1.11-.22-1.51-.62s-.61-.91-.62-1.46h0c0-.61.22-1.14.62-1.55.8-.8,2.21-.8,3.01,0,.4.4.62.94.62,1.51s-.22,1.1-.62,1.5-.94.62-1.5.62Zm-50.73,0c-.57,0-1.1-.22-1.51-.62-.4-.4-.62-.94-.62-1.51s.22-1.1.62-1.51c.81-.8,2.21-.8,3.01,0,.39.39.61.91.62,1.46h0c0,.62-.21,1.14-.62,1.55-.4.4-.93.62-1.5.62Zm20.55-3.09c-.57,0-1.1-.22-1.5-.62s-.62-.94-.62-1.5.22-1.1.62-1.51c.81-.8,2.22-.8,3.01,0,.4.4.62.94.62,1.5s-.22,1.1-.62,1.51c-.4.4-.94.62-1.51.62Z"/></svg>