<svg xmlns="http://www.w3.org/2000/svg"  viewBox="0 0 24 24" width="24px" height="24px"><path d="M 6.75 3 C 4.6911411 3 3 4.6911411 3 6.75 L 3 17.25 C 3 19.308859 4.6911411 21 6.75 21 L 17.25 21 C 19.308859 21 21 19.308859 21 17.25 L 21 6.75 C 21 4.6911411 19.308859 3 17.25 3 L 6.75 3 z M 6.75 5 L 17.25 5 C 18.225141 5 19 5.7748589 19 6.75 L 19 17.25 C 19 18.225141 18.225141 19 17.25 19 L 6.75 19 C 5.7748589 19 5 18.225141 5 17.25 L 5 6.75 C 5 5.7748589 5.7748589 5 6.75 5 z M 8 6.6191406 C 7.88775 6.6191406 7.7749219 6.6835 7.7324219 6.8125 C 7.5374219 7.4065 7.0715156 7.8714063 6.4785156 8.0664062 C 6.2205156 8.1514062 6.2205156 8.5146094 6.4785156 8.5996094 C 7.0715156 8.7956094 7.5374219 9.2614687 7.7324219 9.8554688 C 7.8174219 10.113469 8.1825781 10.113469 8.2675781 9.8554688 C 8.4625781 9.2614687 8.9284844 8.7956094 9.5214844 8.5996094 C 9.7794844 8.5146094 9.7794844 8.1514063 9.5214844 8.0664062 C 8.9284844 7.8714062 8.4625781 7.4065 8.2675781 6.8125 C 8.2250781 6.6835 8.11225 6.6191406 8 6.6191406 z M 14 7.4003906 C 13.86675 7.4003906 13.733594 7.4759063 13.683594 7.6289062 L 13.214844 9.0585938 C 12.982844 9.7625938 12.430563 10.314875 11.726562 10.546875 L 10.296875 11.017578 C 9.990875 11.117578 9.990875 11.550391 10.296875 11.650391 L 11.726562 12.119141 C 12.430563 12.351141 12.982844 12.903422 13.214844 13.607422 L 13.685547 15.037109 C 13.786547 15.343109 14.218359 15.343109 14.318359 15.037109 L 14.787109 13.607422 C 15.018109 12.903422 15.571391 12.351141 16.275391 12.119141 L 17.705078 11.650391 C 18.011078 11.550391 18.011078 11.117578 17.705078 11.017578 L 16.275391 10.546875 C 15.571391 10.315875 15.019109 9.7625938 14.787109 9.0585938 L 14.316406 7.6289062 C 14.266406 7.4759062 14.13325 7.4003906 14 7.4003906 z M 9.3339844 13.400391 C 9.2007344 13.400391 9.0675781 13.475906 9.0175781 13.628906 L 8.9589844 13.804688 C 8.7269844 14.508688 8.1747031 15.060969 7.4707031 15.292969 L 7.296875 15.349609 C 6.990875 15.449609 6.990875 15.882422 7.296875 15.982422 L 7.4707031 16.041016 C 8.1747031 16.273016 8.7269844 16.825297 8.9589844 17.529297 L 9.0175781 17.703125 C 9.1185781 18.009125 9.5503906 18.009125 9.6503906 17.703125 L 9.7070312 17.529297 C 9.9390312 16.825297 10.491313 16.273016 11.195312 16.041016 L 11.371094 15.982422 C 11.677094 15.882422 11.677094 15.449609 11.371094 15.349609 L 11.195312 15.292969 C 10.491312 15.060969 9.9390312 14.508687 9.7070312 13.804688 L 9.6503906 13.628906 C 9.6003906 13.475906 9.4672344 13.400391 9.3339844 13.400391 z"/></svg>