<svg xmlns="http://www.w3.org/2000/svg" viewBox="0 0 32 32"><defs><style>.cls-1{fill:#231f20;}</style></defs><g id="e_learning" data-name="e learning"><path class="cls-1" d="M26.69,11H14.31A2.32,2.32,0,0,0,12,13.31V15h-.5a5.5,5.5,0,1,1,5.35-6.77A1,1,0,0,0,18.06,9a1,1,0,0,0,.74-1.2,7.5,7.5,0,1,0-11.69,7.8A6.87,6.87,0,0,0,3,21.84v3.05A5.11,5.11,0,0,0,8.11,30H12a1,1,0,0,0,1-1V26.82A2.83,2.83,0,0,0,10.18,24h-1A.22.22,0,0,1,9,23.78V22a1,1,0,0,0-2,0v1.78A2.21,2.21,0,0,0,9.22,26h1a.82.82,0,0,1,.82.82V28H8.11A3.11,3.11,0,0,1,5,24.89V21.84A4.84,4.84,0,0,1,9.84,17H12v4.69A2.32,2.32,0,0,0,14.31,24h3l-.15,1h-.71A2.42,2.42,0,0,0,14,27.42V29a1,1,0,0,0,1,1h5a1,1,0,0,0,0-2H16v-.58a.42.42,0,0,1,.42-.42H18a1,1,0,0,0,1-.86l.79-5.51a.73.73,0,0,1,1.44,0L22,26.14A1,1,0,0,0,23,27h1.58a.42.42,0,0,1,.42.42V28H24a1,1,0,0,0,0,2h2a1,1,0,0,0,1-1V27.42A2.42,2.42,0,0,0,24.58,25h-.71l-.15-1h3A2.32,2.32,0,0,0,29,21.69V13.31A2.32,2.32,0,0,0,26.69,11ZM27,21.69a.31.31,0,0,1-.31.31H23.44l-.24-1.66a2.73,2.73,0,0,0-5.4,0L17.56,22H14.31a.31.31,0,0,1-.31-.31V13.31a.31.31,0,0,1,.31-.31H26.69a.31.31,0,0,1,.31.31Z"/></g></svg>